<svg viewBox="0 0 82 48" fill="none" xmlns="http://www.w3.org/2000/svg">
<path fill-rule="evenodd" clip-rule="evenodd" d="M39.7434 45.0969V39.5747C39.7709 38.9225 40.3607 38.4313 41.0081 38.5434C41.4813 38.6679 41.812 39.0858 41.8326 39.5747V45.0853L59.392 34.8469V31.2573C59.4302 30.3457 59.8673 30.2673 60.304 30.2109C60.8968 30.1342 61.4499 30.515 61.4812 31.2573V35.456C61.4661 35.8289 61.2749 36.1678 60.9589 36.3696L41.382 47.7843C41.2878 47.8549 41.1825 47.9077 41.0689 47.9396C40.8846 48.011 40.8101 47.9909 40.7069 47.9694C40.6473 47.9633 40.5865 47.9519 40.5247 47.935C40.3756 47.8998 40.2407 47.8398 40.1265 47.7525L20.6043 36.3696C20.2919 36.1701 20.0971 35.8333 20.082 35.456V31.8182C20.108 31.1994 20.6327 30.7179 21.2593 30.7718C21.772 30.8606 22.1492 31.295 22.1712 31.8182V34.8469L39.7434 45.0969Z" fill="black"/>
<path fill-rule="evenodd" clip-rule="evenodd" d="M20.3138 11.8924C20.3884 11.7832 20.4851 11.6856 20.6043 11.6065L40.2657 0.142417C40.4318 0.0585488 40.4789 -0.040616 40.9694 0.0174059C41.1968 0.0717356 41.2432 0.108659 41.3103 0.142417L60.9589 11.5991C61.1062 11.6972 61.2222 11.8254 61.3036 11.9705C61.4086 12.1324 61.4723 12.3233 61.4812 12.528V17.7036C61.453 18.3698 61.172 18.5101 60.9067 18.6451C60.2721 18.9684 59.4291 18.586 59.392 17.7036V14.3552L41.8306 24.5946L41.8196 27.8924C41.7973 28.384 41.6784 28.4626 41.5267 28.6214C40.9473 29.2279 39.7689 28.8784 39.7304 27.8854L39.7413 24.5998L22.1712 14.3552L22.1674 16.6681C22.0412 17.6635 21.7284 17.6086 21.1709 17.6324C20.6003 17.6571 20.1116 17.2816 20.082 16.5785V12.528C20.092 12.2875 20.1768 12.068 20.3138 11.8924ZM23.2158 12.5201L40.775 22.7586L58.3475 12.5127L40.788 2.27446C34.9306 5.68985 29.0732 9.1047 23.2158 12.5201Z" fill="black"/>
<path fill-rule="evenodd" clip-rule="evenodd" d="M6.80175 17.1998C8.46291 17.3649 7.95472 18.4779 7.47206 18.9985L2.53499 23.9843L7.51881 29.0208C8.0398 29.6619 7.8395 29.8365 7.67033 30.183C7.38124 30.775 6.51898 30.9582 5.99481 30.4623L0.319053 24.7303C0.175422 24.5754 0.163357 24.538 0.120843 24.4509C-0.0733458 24.0532 -0.0515139 23.638 0.319053 23.2384L5.99481 17.5063C6.21459 17.2985 6.48979 17.1893 6.80175 17.1998Z" fill="#286EFA"/>
<path fill-rule="evenodd" clip-rule="evenodd" d="M74.8978 17.1998C75.2822 17.2378 75.3856 17.3338 75.5679 17.5063L81.2436 23.2384C81.3872 23.3932 81.3993 23.4306 81.4421 23.5177C81.6364 23.9154 81.6144 24.3307 81.2436 24.7303L75.5679 30.4623C74.7876 31.2007 73.0786 30.062 74.0908 28.9704L79.028 23.9843L74.0438 18.9479C73.709 18.5359 73.7743 18.3787 73.7868 18.1836C73.8302 17.5158 74.7834 17.1956 74.8978 17.1998Z" fill="#286EFA"/>
<path fill-rule="evenodd" clip-rule="evenodd" d="M12.3962 22.4278C13.2428 22.4278 13.9301 23.1219 13.9301 23.9768C13.9301 24.8317 13.2428 25.5258 12.3962 25.5258C11.5497 25.5258 10.8624 24.8317 10.8624 23.9768C10.8624 23.1219 11.5497 22.4278 12.3962 22.4278Z" fill="#286EFA"/>
<path fill-rule="evenodd" clip-rule="evenodd" d="M19.4748 20.3328C20.8938 20.3328 22.0458 21.4962 22.0458 22.9293C22.0458 24.3623 20.8938 25.5258 19.4748 25.5258C18.0558 25.5258 16.9038 24.3623 16.9038 22.9293C16.9038 21.4962 18.0558 20.3328 19.4748 20.3328Z" fill="#286EFA"/>
<path fill-rule="evenodd" clip-rule="evenodd" d="M26.3187 27.3652C27.7377 27.3652 28.8897 28.5286 28.8897 29.9617C28.8897 31.3947 27.7377 32.5582 26.3187 32.5582C24.8997 32.5582 23.7477 31.3947 23.7477 29.9617C23.7477 28.5286 24.8997 27.3652 26.3187 27.3652Z" fill="#286EFA"/>
<path fill-rule="evenodd" clip-rule="evenodd" d="M27.1742 21.3329C27.7257 21.3329 28.1735 21.7852 28.1735 22.3422C28.1735 22.8992 27.7257 23.3514 27.1742 23.3514C26.6226 23.3514 26.1748 22.8992 26.1748 22.3422C26.1748 21.7852 26.6226 21.3329 27.1742 21.3329Z" fill="#286EFA"/>
<path fill-rule="evenodd" clip-rule="evenodd" d="M36.9665 35.8893C37.5181 35.8893 37.9658 36.3415 37.9658 36.8985C37.9658 37.4556 37.5181 37.9078 36.9665 37.9078C36.4149 37.9078 35.9672 37.4556 35.9672 36.8985C35.9672 36.3415 36.4149 35.8893 36.9665 35.8893Z" fill="#286EFA"/>
<path fill-rule="evenodd" clip-rule="evenodd" d="M33.9278 27.4927C35.0605 27.4927 35.9802 28.4215 35.9802 29.5655C35.9802 30.7095 35.0605 31.6382 33.9278 31.6382C32.795 31.6382 31.8754 30.7095 31.8754 29.5655C31.8754 28.4215 32.795 27.4927 33.9278 27.4927Z" fill="#286EFA"/>
<path fill-rule="evenodd" clip-rule="evenodd" d="M45.3269 32.7912C46.1734 32.7912 46.8607 33.4853 46.8607 34.3403C46.8607 35.1952 46.1734 35.8893 45.3269 35.8893C44.4803 35.8893 43.7931 35.1952 43.7931 34.3403C43.7931 33.4853 44.4803 32.7912 45.3269 32.7912Z" fill="#286EFA"/>
<path fill-rule="evenodd" clip-rule="evenodd" d="M49.26 25.1109C49.9272 25.1109 50.4688 25.6579 50.4688 26.3317C50.4688 27.0055 49.9272 27.5525 49.26 27.5525C48.5928 27.5525 48.0511 27.0055 48.0511 26.3317C48.0511 25.6579 48.5928 25.1109 49.26 25.1109Z" fill="#286EFA"/>
<path fill-rule="evenodd" clip-rule="evenodd" d="M56.0138 24.7803C57.4266 24.7803 58.5731 25.9386 58.5731 27.3652C58.5731 28.7918 57.4266 29.95 56.0138 29.95C54.601 29.95 53.4546 28.7918 53.4546 27.3652C53.4546 25.9386 54.601 24.7803 56.0138 24.7803Z" fill="#286EFA"/>
<path fill-rule="evenodd" clip-rule="evenodd" d="M62.9578 22.9293C63.8039 22.9293 64.4913 23.6234 64.4913 24.4783C64.4913 25.3332 63.8039 26.0273 62.9578 26.0273C62.1112 26.0273 61.4238 25.3332 61.4238 24.4783C61.4238 23.6234 62.1112 22.9293 62.9578 22.9293Z" fill="#286EFA"/>
<path fill-rule="evenodd" clip-rule="evenodd" d="M68.062 16.7473C68.9087 16.7473 69.596 17.4414 69.596 18.2964C69.596 19.1515 68.9087 19.8454 68.062 19.8454C67.2159 19.8454 66.5286 19.1515 66.5286 18.2964C66.5286 17.4414 67.2159 16.7473 68.062 16.7473Z" fill="#286EFA"/>
<path fill-rule="evenodd" clip-rule="evenodd" d="M69.3516 22.9293C70.0629 22.9293 70.6406 23.5127 70.6406 24.2312C70.6406 24.9498 70.0629 25.5331 69.3516 25.5331C68.6397 25.5331 68.062 24.9498 68.062 24.2312C68.062 23.5127 68.6397 22.9293 69.3516 22.9293Z" fill="#286EFA"/>
</svg>
