<svg width="104" height="95" viewBox="0 0 104 95" fill="none" xmlns="http://www.w3.org/2000/svg">
<path fill-rule="evenodd" clip-rule="evenodd" d="M50.8629 54.504V47.8299C50.8952 47.0416 51.5908 46.448 52.354 46.5834C52.9121 46.7339 53.302 47.239 53.3263 47.8299V54.49L74.031 42.1159V37.7775C74.076 36.6757 74.5914 36.581 75.1063 36.5128C75.8053 36.4202 76.4574 36.8803 76.4944 37.7775V42.8521C76.4765 43.3028 76.2511 43.7123 75.8785 43.9562L52.7949 57.752C52.6838 57.8373 52.5597 57.9012 52.4257 57.9397C52.2085 58.026 52.1206 58.0018 51.9989 57.9757C51.9287 57.9684 51.8569 57.9546 51.7841 57.9341C51.6083 57.8917 51.4492 57.8191 51.3146 57.7136L28.2955 43.9562C27.9272 43.7151 27.6974 43.308 27.6797 42.8521V38.4554C27.7104 37.7075 28.329 37.1256 29.0678 37.1907C29.6724 37.2981 30.1171 37.823 30.1431 38.4554V42.1159L50.8629 54.504Z" fill="white"/>
<path fill-rule="evenodd" clip-rule="evenodd" d="M27.9529 14.3731C28.0409 14.2411 28.1549 14.1232 28.2955 14.0276L51.4787 0.172065C51.6745 0.0707022 51.7301 -0.0491485 52.3084 0.0209769C52.5765 0.0866397 52.6312 0.131265 52.7104 0.172065L75.8785 14.0186C76.0522 14.1372 76.1889 14.2921 76.285 14.4674C76.4088 14.6632 76.4839 14.8939 76.4944 15.1413V21.3965C76.4611 22.2016 76.1298 22.3712 75.817 22.5344C75.0687 22.9252 74.0747 22.463 74.031 21.3965V17.3496L53.3239 29.7249L53.3109 33.7107C53.2846 34.3048 53.1445 34.3999 52.9656 34.5918C52.2824 35.3248 50.8929 34.9024 50.8476 33.7022L50.8604 29.7313L30.1431 17.3496L30.1386 20.1451C29.9898 21.348 29.6209 21.2817 28.9636 21.3104C28.2908 21.3404 27.7145 20.8865 27.6797 20.0367V15.1413C27.6914 14.8506 27.7915 14.5854 27.9529 14.3731ZM31.3747 15.1318L52.0791 27.5061L72.7992 15.1228L52.0944 2.7489C45.1879 6.87674 38.2813 11.0039 31.3747 15.1318Z" fill="white"/>
<path fill-rule="evenodd" clip-rule="evenodd" d="M12.0201 20.7877C13.9788 20.9872 13.3796 22.3324 12.8105 22.9616L6.98906 28.9875L12.8656 35.0745C13.4799 35.8494 13.2437 36.0604 13.0443 36.4792C12.7034 37.1947 11.6867 37.416 11.0686 36.8168L4.3762 29.889C4.20684 29.7019 4.19262 29.6567 4.14249 29.5514C3.91352 29.0707 3.93926 28.5689 4.3762 28.0859L11.0686 21.1581C11.3278 20.9069 11.6523 20.775 12.0201 20.7877Z" fill="#286EFA"/>
<path fill-rule="evenodd" clip-rule="evenodd" d="M92.314 20.7879C92.7673 20.8338 92.8892 20.9498 93.1041 21.1583L99.7965 28.0861C99.9659 28.2733 99.9801 28.3185 100.031 28.4237C100.26 28.9044 100.234 29.4063 99.7965 29.8892L93.1041 36.817C92.184 37.7094 90.169 36.3332 91.3625 35.0139L97.1841 28.9877L91.3071 22.9006C90.9123 22.4027 90.9893 22.2127 91.0041 21.9769C91.0552 21.1698 92.1791 20.7828 92.314 20.7879Z" fill="#286EFA"/>
<path fill-rule="evenodd" clip-rule="evenodd" d="M18.6172 27.106C19.6153 27.106 20.4257 27.9449 20.4257 28.9782C20.4257 30.0114 19.6153 30.8502 18.6172 30.8502C17.619 30.8502 16.8086 30.0114 16.8086 28.9782C16.8086 27.9449 17.619 27.106 18.6172 27.106Z" fill="#286EFA"/>
<path fill-rule="evenodd" clip-rule="evenodd" d="M26.9631 24.5742C28.6363 24.5742 29.9947 25.9804 29.9947 27.7123C29.9947 29.4443 28.6363 30.8505 26.9631 30.8505C25.29 30.8505 23.9316 29.4443 23.9316 27.7123C23.9316 25.9804 25.29 24.5742 26.9631 24.5742Z" fill="#286EFA"/>
<path fill-rule="evenodd" clip-rule="evenodd" d="M35.0325 33.0735C36.7057 33.0735 38.0641 34.4796 38.0641 36.2116C38.0641 37.9435 36.7057 39.3498 35.0325 39.3498C33.3594 39.3498 32.001 37.9435 32.001 36.2116C32.001 34.4796 33.3594 33.0735 35.0325 33.0735Z" fill="#286EFA"/>
<path fill-rule="evenodd" clip-rule="evenodd" d="M36.0416 25.7828C36.692 25.7828 37.2199 26.3294 37.2199 27.0026C37.2199 27.6758 36.692 28.2223 36.0416 28.2223C35.3913 28.2223 34.8633 27.6758 34.8633 27.0026C34.8633 26.3294 35.3913 25.7828 36.0416 25.7828Z" fill="#286EFA"/>
<path fill-rule="evenodd" clip-rule="evenodd" d="M47.5885 43.3757C48.2389 43.3757 48.7668 43.9222 48.7668 44.5955C48.7668 45.2687 48.2389 45.8152 47.5885 45.8152C46.9381 45.8152 46.4102 45.2687 46.4102 44.5955C46.4102 43.9222 46.9381 43.3757 47.5885 43.3757Z" fill="#286EFA"/>
<path fill-rule="evenodd" clip-rule="evenodd" d="M44.005 33.2276C45.3407 33.2276 46.425 34.3501 46.425 35.7327C46.425 37.1153 45.3407 38.2378 44.005 38.2378C42.6693 38.2378 41.585 37.1153 41.585 35.7327C41.585 34.3501 42.6693 33.2276 44.005 33.2276Z" fill="#286EFA"/>
<path fill-rule="evenodd" clip-rule="evenodd" d="M57.4462 39.6315C58.4444 39.6315 59.2548 40.4704 59.2548 41.5036C59.2548 42.5369 58.4444 43.3758 57.4462 43.3758C56.448 43.3758 55.6377 42.5369 55.6377 41.5036C55.6377 40.4704 56.448 39.6315 57.4462 39.6315Z" fill="#286EFA"/>
<path fill-rule="evenodd" clip-rule="evenodd" d="M62.0836 30.349C62.8703 30.349 63.509 31.0102 63.509 31.8245C63.509 32.6389 62.8703 33.3 62.0836 33.3C61.2969 33.3 60.6582 32.6389 60.6582 31.8245C60.6582 31.0102 61.2969 30.349 62.0836 30.349Z" fill="#286EFA"/>
<path fill-rule="evenodd" clip-rule="evenodd" d="M70.0469 29.9495C71.7128 29.9495 73.0646 31.3493 73.0646 33.0735C73.0646 34.7977 71.7128 36.1975 70.0469 36.1975C68.3811 36.1975 67.0293 34.7977 67.0293 33.0735C67.0293 31.3493 68.3811 29.9495 70.0469 29.9495Z" fill="#286EFA"/>
<path fill-rule="evenodd" clip-rule="evenodd" d="M78.2345 27.7124C79.2322 27.7124 80.0427 28.5513 80.0427 29.5845C80.0427 30.6178 79.2322 31.4567 78.2345 31.4567C77.2362 31.4567 76.4258 30.6178 76.4258 29.5845C76.4258 28.5513 77.2362 27.7124 78.2345 27.7124Z" fill="#286EFA"/>
<path fill-rule="evenodd" clip-rule="evenodd" d="M84.2534 20.2407C85.2517 20.2407 86.0622 21.0796 86.0622 22.113C86.0622 23.1464 85.2517 23.985 84.2534 23.985C83.2558 23.985 82.4453 23.1464 82.4453 22.113C82.4453 21.0796 83.2558 20.2407 84.2534 20.2407Z" fill="#286EFA"/>
<path fill-rule="evenodd" clip-rule="evenodd" d="M85.7744 27.7124C86.6132 27.7124 87.2944 28.4175 87.2944 29.2859C87.2944 30.1543 86.6132 30.8594 85.7744 30.8594C84.935 30.8594 84.2539 30.1543 84.2539 29.2859C84.2539 28.4175 84.935 27.7124 85.7744 27.7124Z" fill="#286EFA"/>
<path fill-rule="evenodd" clip-rule="evenodd" d="M8.94622 83.2374L15.0348 75.5418H15.2834V89.4192H17.8924V71.757H15.0348L8.94622 79.4526L2.85761 71.757H0V89.4192H2.60907V75.5418H2.85761L8.94622 83.2374Z" fill="white"/>
<path fill-rule="evenodd" clip-rule="evenodd" d="M26.466 76.8033C25.6212 76.8033 24.8301 76.9673 24.0929 77.2954C23.3556 77.6234 22.7134 78.0775 22.1667 78.6579C21.62 79.2382 21.1851 79.932 20.8625 80.7394C20.5392 81.5469 20.3779 82.4216 20.3779 83.3636C20.3779 84.3055 20.5392 85.1803 20.8625 85.9876C21.1851 86.795 21.6242 87.4889 22.1792 88.0693C22.7343 88.6496 23.3885 89.1037 24.1425 89.4318C24.8965 89.7598 25.7126 89.9238 26.5902 89.9238C27.4022 89.9238 28.1311 89.8103 28.7775 89.5831C29.4233 89.3561 29.9909 89.0575 30.4796 88.6874C30.9684 88.3174 31.3782 87.8968 31.7098 87.4259C32.0408 86.9549 32.281 86.4839 32.4303 86.0129L30.0692 85.6344C29.8212 86.2063 29.4275 86.7068 28.8892 87.1357C28.3509 87.5646 27.5844 87.7791 26.5902 87.7791C26.0931 87.7791 25.6295 87.6908 25.1988 87.5142C24.768 87.3375 24.391 87.0936 24.0678 86.7824C23.7452 86.4712 23.4799 86.1096 23.2726 85.6975C23.0659 85.2854 22.929 84.8438 22.8627 84.3729H31.5604L32.5546 83.3636C32.5546 82.4552 32.3891 81.6016 32.0575 80.8025C31.7259 80.0036 31.279 79.3055 30.7156 78.7083C30.1522 78.1112 29.5064 77.6444 28.7775 77.308C28.048 76.9715 27.2779 76.8033 26.466 76.8033ZM26.4659 78.9481C26.9302 78.9481 27.3693 79.0365 27.7833 79.2131C28.1974 79.3897 28.5618 79.6294 28.8767 79.9322C29.1915 80.2349 29.4526 80.584 29.6593 80.9793C29.8666 81.3746 30.0035 81.7909 30.0692 82.2283H22.8627C22.929 81.7909 23.0658 81.3746 23.2726 80.9793C23.4799 80.584 23.741 80.2349 24.0558 79.9322C24.3701 79.6294 24.7351 79.3897 25.1492 79.2131C25.5632 79.0365 26.0023 78.9481 26.4659 78.9481Z" fill="white"/>
<path fill-rule="evenodd" clip-rule="evenodd" d="M33.4248 77.308V79.4527H35.0397V85.6344C35.0397 86.9633 35.4042 88.0104 36.1336 88.7758C36.8625 89.5411 37.8232 89.9238 39.0164 89.9238C39.3145 89.9238 39.5959 89.8986 39.8611 89.8481C40.1258 89.7977 40.3499 89.7388 40.5321 89.6715C40.7472 89.6042 40.9461 89.5201 41.1283 89.4192L40.7555 87.2745C40.6068 87.3754 40.449 87.4596 40.2835 87.5268C40.1509 87.5941 39.9938 87.653 39.8116 87.7034C39.6293 87.7539 39.4471 87.7791 39.2643 87.7791C38.7015 87.7791 38.2498 87.5983 37.9105 87.2366C37.5705 86.875 37.4008 86.3409 37.4008 85.6344V79.4527H40.2585V77.308H37.4008V74.2802H35.0397V77.308H33.4248Z" fill="white"/>
<path fill-rule="evenodd" clip-rule="evenodd" d="M41.873 83.3636C41.873 84.3055 42.0302 85.1803 42.345 85.9876C42.6599 86.795 43.0781 87.4889 43.6003 88.0693C44.1219 88.6496 44.7187 89.1037 45.3896 89.4318C46.0606 89.7598 46.7518 89.9238 47.4646 89.9238C48.0937 89.9238 48.6326 89.8187 49.0795 89.6084C49.527 89.3981 49.8998 89.1668 50.1979 88.9145C50.5456 88.6118 50.836 88.2754 51.0678 87.9053H51.3164V89.4192H53.6769V77.308H51.3164V78.8218H51.0678C50.836 78.4518 50.5456 78.1154 50.1979 77.8126C49.8998 77.5603 49.527 77.329 49.0795 77.1187C48.6326 76.9085 48.0937 76.8033 47.4646 76.8033C46.7518 76.8033 46.0606 76.9673 45.3896 77.2954C44.7187 77.6234 44.1219 78.0775 43.6003 78.6579C43.0781 79.2382 42.6599 79.932 42.345 80.7394C42.0302 81.5469 41.873 82.4216 41.873 83.3636ZM51.3164 81.7236V85.0037C51.0511 85.5252 50.7446 85.9878 50.3969 86.3915C50.0988 86.7448 49.7218 87.0643 49.2659 87.3503C48.8107 87.6362 48.2927 87.7792 47.7132 87.7792C47.2489 87.7792 46.8056 87.6783 46.3832 87.4765C45.9608 87.2746 45.5922 86.9844 45.2774 86.606C44.9631 86.2275 44.7104 85.7649 44.5198 85.2182C44.3292 84.6716 44.2336 84.0534 44.2336 83.3637C44.2336 82.6741 44.3292 82.0559 44.5198 81.5092C44.7104 80.9625 44.9631 80.4999 45.2774 80.1214C45.5922 79.743 45.9608 79.4528 46.3832 79.251C46.8056 79.0491 47.2489 78.9481 47.7132 78.9481C48.2927 78.9481 48.8107 79.0954 49.2659 79.3897C49.7218 79.6841 50.0988 79.9995 50.3969 80.3359C50.7446 80.7564 51.0511 81.219 51.3164 81.7236Z" fill="white"/>
<path fill-rule="evenodd" clip-rule="evenodd" d="M67.3453 84.4989C67.3453 84.9026 67.2462 85.3022 67.0472 85.6975C66.8483 86.0928 66.5669 86.446 66.2024 86.7572C65.838 87.0684 65.3947 87.3165 64.8731 87.5015C64.3509 87.6866 63.7672 87.7791 63.1208 87.7791C62.4749 87.7791 61.8906 87.6908 61.369 87.5142C60.8469 87.3375 60.3958 87.0936 60.0146 86.7824C59.6334 86.4712 59.3066 86.1096 59.033 85.6975C58.7594 85.2854 58.5485 84.8438 58.3991 84.3728L55.79 84.7513C56.0386 85.5419 56.3696 86.2694 56.7842 86.9338C57.1982 87.5982 57.7037 88.1701 58.2999 88.6495C58.8962 89.129 59.5922 89.5032 60.3874 89.7724C61.1826 90.0415 62.0937 90.1761 63.1208 90.1761C64.1812 90.1761 65.1336 90.0205 65.979 89.7093C66.8238 89.3981 67.5401 88.986 68.1286 88.473C68.7165 87.9599 69.1682 87.3586 69.483 86.6689C69.7973 85.9793 69.955 85.2559 69.955 84.4989C69.955 83.7252 69.8015 83.0692 69.495 82.5309C69.1885 81.9926 68.7912 81.5343 68.3025 81.1557C67.8137 80.7773 67.2504 80.4619 66.6123 80.2096C65.9748 79.9573 65.3284 79.7344 64.6741 79.5409C64.0199 79.3475 63.3735 79.1582 62.736 78.9732C62.0979 78.7882 61.5345 78.5779 61.0458 78.3425C60.5571 78.1069 60.1598 77.8294 59.8533 77.5098C59.5468 77.1902 59.3933 76.7865 59.3933 76.2987C59.3933 75.9454 59.4847 75.5964 59.6669 75.2515C59.8491 74.9067 60.1018 74.5956 60.4245 74.318C60.7477 74.0404 61.1372 73.8176 61.5925 73.6494C62.0483 73.4812 62.5574 73.397 63.1208 73.397C63.7176 73.397 64.2392 73.4727 64.6867 73.6241C65.1336 73.7755 65.5273 73.9858 65.8673 74.2549C66.2066 74.524 66.4838 74.8437 66.6995 75.2137C66.9146 75.5838 67.089 75.9875 67.2211 76.4248L69.8307 76.0463C69.6485 75.3567 69.3707 74.7049 68.9979 74.0909C68.6257 73.4769 68.1573 72.9428 67.5939 72.4887C67.0311 72.0345 66.3763 71.6729 65.6307 71.4037C64.8856 71.1346 64.0486 71 63.1208 71C62.1601 71 61.2902 71.1472 60.5117 71.4416C59.7332 71.7359 59.0659 72.127 58.5114 72.6149C57.9564 73.1026 57.5298 73.6662 57.2311 74.3054C56.933 74.9445 56.7842 75.609 56.7842 76.2987C56.7842 77.0893 56.9371 77.7579 57.2436 78.3046C57.5501 78.8513 57.948 79.3181 58.4367 79.705C58.9255 80.0918 59.4889 80.4114 60.1263 80.6638C60.7644 80.9161 61.4103 81.1432 62.0651 81.345C62.7193 81.5469 63.3651 81.7361 64.0032 81.9127C64.6413 82.0894 65.2041 82.2912 65.6928 82.5183C66.1815 82.7454 66.5794 83.0145 66.8859 83.3257C67.1924 83.6369 67.3453 84.028 67.3453 84.4989Z" fill="white"/>
<path fill-rule="evenodd" clip-rule="evenodd" d="M83.4982 89.4192V82.3543C83.4982 81.53 83.3656 80.7773 83.1003 80.0961C82.8357 79.4148 82.479 78.8303 82.0321 78.3425C81.5846 77.8546 81.0588 77.4762 80.4542 77.207C79.849 76.9379 79.2074 76.8033 78.5281 76.8033C77.9647 76.8033 77.4676 76.9085 77.0368 77.1187C76.6061 77.329 76.2416 77.5603 75.9435 77.8126C75.5958 78.1154 75.2976 78.4518 75.0491 78.8218H74.8006V71.757H72.4395V89.4192H74.8006V81.7235C75.0652 81.2188 75.3717 80.7563 75.72 80.3357C76.0182 79.9993 76.3743 79.6839 76.7883 79.3895C77.2029 79.0952 77.6582 78.948 78.1552 78.948C78.5531 78.948 78.9337 79.0279 79.2982 79.1877C79.6626 79.3475 79.9816 79.5746 80.2553 79.8689C80.5283 80.1633 80.744 80.5208 80.9011 80.9413C81.0589 81.3618 81.1371 81.8328 81.1371 82.3543V89.4192H83.4982Z" fill="white"/>
<path fill-rule="evenodd" clip-rule="evenodd" d="M86.605 89.4192H88.9658V77.308H86.605V89.4192ZM86.3564 73.0944C86.3564 73.4981 86.4933 73.8387 86.7669 74.1163C87.0399 74.3938 87.3757 74.5326 87.773 74.5326C88.187 74.5326 88.5312 74.3938 88.8042 74.1163C89.0778 73.8387 89.2146 73.4981 89.2146 73.0944C89.2146 72.6738 89.0778 72.3248 88.8042 72.0473C88.5312 71.7697 88.187 71.6309 87.773 71.6309C87.3757 71.6309 87.0399 71.7697 86.7669 72.0473C86.4933 72.3248 86.3564 72.6738 86.3564 73.0944Z" fill="white"/>
<path fill-rule="evenodd" clip-rule="evenodd" d="M104 83.3636C104 82.4216 103.843 81.5469 103.528 80.7394C103.213 79.932 102.795 79.2382 102.274 78.6579C101.751 78.0775 101.155 77.6234 100.484 77.2954C99.8132 76.9673 99.1213 76.8033 98.4092 76.8033C97.7795 76.8033 97.2412 76.9085 96.7937 77.1187C96.3462 77.329 95.9734 77.5603 95.6752 77.8126C95.3275 78.1154 95.0378 78.4518 94.8054 78.8218H94.5568V77.308H92.1963V94.4655H94.5568V87.9053H94.8054C95.0378 88.2754 95.3275 88.6118 95.6752 88.9145C95.9734 89.1668 96.3462 89.3981 96.7937 89.6084C97.2412 89.8187 97.7795 89.9238 98.4092 89.9238C99.1213 89.9238 99.8132 89.7598 100.484 89.4318C101.155 89.1037 101.751 88.6496 102.274 88.0693C102.795 87.4889 103.213 86.795 103.528 85.9876C103.843 85.1803 104 84.3055 104 83.3636ZM94.5568 85.0037V81.7236C94.8221 81.219 95.1286 80.7564 95.4763 80.3359C95.775 79.9995 96.1479 79.6841 96.5947 79.3897C97.0422 79.0954 97.5638 78.9481 98.1607 78.9481C98.6243 78.9481 99.0676 79.0491 99.49 79.251C99.9124 79.4528 100.281 79.743 100.596 80.1214C100.911 80.4999 101.163 80.9625 101.354 81.5092C101.544 82.0559 101.64 82.6741 101.64 83.3637C101.64 84.0534 101.544 84.6716 101.354 85.2182C101.163 85.7649 100.911 86.2275 100.596 86.606C100.281 86.9844 99.9124 87.2746 99.49 87.4765C99.0676 87.6783 98.6243 87.7792 98.1607 87.7792C97.5638 87.7792 97.0422 87.6362 96.5947 87.3503C96.1479 87.0643 95.775 86.7448 95.4763 86.3915C95.1286 85.9878 94.8221 85.5252 94.5568 85.0037Z" fill="white"/>
</svg>
